<svg xmlns="http://www.w3.org/2000/svg" xmlns:xlink="http://www.w3.org/1999/xlink" viewBox="0 0 3710 3710"><defs><style>.cls-1{fill:#e3e2f2;}.cls-2{fill:#d2cef2;}.cls-3{fill:#8f7ef2;}.cls-4{fill:#b1a5ef;}.cls-5{fill:#3c267f;}.cls-6{fill:#3f67f9;opacity:0.5;}.cls-7,.cls-9{fill:#fff;}.cls-7{opacity:0.73;}.cls-8{fill:#8261f0;}.cls-10{fill:#f06aa9;}.cls-11{fill:#ce468a;}.cls-12{fill:url(#linear-gradient);}.cls-13{fill:url(#linear-gradient-2);}.cls-14{fill:url(#linear-gradient-3);}.cls-15{fill:url(#linear-gradient-4);}.cls-16{fill:url(#linear-gradient-5);}.cls-17{fill:url(#linear-gradient-6);}.cls-18{fill:url(#linear-gradient-7);}.cls-19{fill:url(#linear-gradient-8);}.cls-20{fill:url(#linear-gradient-9);}.cls-21{fill:url(#linear-gradient-10);}.cls-22{fill:#d6f2e7;}.cls-23{fill:#2bb285;}.cls-24{fill:#36c399;}</style><linearGradient id="linear-gradient" x1="4456.01" y1="3161.61" x2="4509.3" y2="3161.61" gradientTransform="translate(-3363.65)" gradientUnits="userSpaceOnUse"><stop offset="0" stop-color="#febbba"/><stop offset="1" stop-color="#ff928e"/></linearGradient><linearGradient id="linear-gradient-2" x1="4263.95" y1="3158.88" x2="4309.96" y2="3158.88" xlink:href="#linear-gradient"/><linearGradient id="linear-gradient-3" x1="69.71" y1="1454.1" x2="163.73" y2="1722.74" gradientTransform="matrix(-1, 0, 0, 1, 1611.63, 0)" xlink:href="#linear-gradient"/><linearGradient id="linear-gradient-4" x1="-10.66" y1="1482.23" x2="83.37" y2="1750.87" gradientTransform="matrix(-1, 0, 0, 1, 1611.63, 0)" xlink:href="#linear-gradient"/><linearGradient id="linear-gradient-5" x1="61.57" y1="1653.86" x2="-9.25" y2="1510.99" gradientTransform="matrix(-1, 0, 0, 1, 1611.63, 0)" xlink:href="#linear-gradient"/><linearGradient id="linear-gradient-6" x1="4079.55" y1="2156.95" x2="4424.09" y2="2156.95" xlink:href="#linear-gradient"/><linearGradient id="linear-gradient-7" x1="4398.51" y1="2120.82" x2="4505.85" y2="2120.82" xlink:href="#linear-gradient"/><linearGradient id="linear-gradient-8" x1="4344.11" y1="1788.61" x2="4480.33" y2="1788.61" xlink:href="#linear-gradient"/><linearGradient id="linear-gradient-9" x1="-2126.04" y1="1460.31" x2="-2176.95" y2="1292.42" gradientTransform="matrix(0.75, -0.67, 0.67, 0.75, 1762.68, -803.17)" xlink:href="#linear-gradient"/><linearGradient id="linear-gradient-10" x1="-2178.08" y1="1459.53" x2="-2223.88" y2="1308.47" gradientTransform="matrix(0.75, -0.67, 0.67, 0.75, 1762.68, -803.17)" xlink:href="#linear-gradient"/></defs><g id="Illustration"><path class="cls-1" d="M2908.56,2847.57c-56.86,59.86-110.66,98.46-153.17,129-499.66,358.52-1090.9,254-1216.55,228.49-185.56-37.69-544.23-110.53-803.54-415.48-392.31-461.35-331.22-1188.2-26.92-1668,55.67-87.76,349.69-574.88,947.3-653,361.66-47.27,783.24,48.08,1088.54,303.86C3385.08,1309.29,3339.45,2393.94,2908.56,2847.57Z"/><path class="cls-2" d="M2835.69,660.78l142.68,344.3A322.51,322.51,0,0,1,2961.9,1286l-289.31,517.23a322.49,322.49,0,0,0-39.08,192.87l32.18,291.15a322.49,322.49,0,0,1-117.53,286h0c-135.4,109.69-333.44,92-447.24-40l-180.44-209.23a322.51,322.51,0,0,1-45-353.41l189.14-383a322.43,322.43,0,0,0,33-157.72l-26.06-562a322.52,322.52,0,0,1,183.21-306l144-68.75C2565.55,413.6,2765,490.09,2835.69,660.78Z"/><path class="cls-3" d="M2280.77,2700.63c-25.31-451.18,43-908.77,104.76-1213.19,37-182.18,74.27-324.22,99.06-411.29,16.51-58,28.77-96.22,36.16-118.11,16-47.49,19.25-49.55,24.15-52.66a16.47,16.47,0,0,1,21.51,24.43c-23.13,44-300.07,925.28-252.74,1769a16.48,16.48,0,0,1-32.9,1.85Zm281.8-1767.44,0,0Zm.06,0h0Z"/><path class="cls-4" d="M2511.79,2115.54a207.57,207.57,0,0,0,89.65-187.35c-6.06-79.07,6.33-167.42,39.58-255.11C2728.25,1443,2926,1304.55,3082.7,1364s213,294.11,125.78,524.24a638.64,638.64,0,0,1-62.19,122.87c-36.63,56.07-44.13,126.3-19,188.39a261.85,261.85,0,0,1-191.93,355,205.39,205.39,0,0,0-126.24,80.23c-86.5,118.5-217.24,176.86-328.67,134.61-142.83-54.14-199.86-253-127.39-444.18C2387.6,2234,2445.34,2161.05,2511.79,2115.54Z"/><path class="cls-3" d="M2342.74,3030.79a10.11,10.11,0,0,0,10.44-3.24C2483.24,2873.21,2615,2585.3,2702.67,2371c94.81-231.85,159.88-430,160.52-432a10.12,10.12,0,1,0-19.23-6.3c-2.58,7.87-260.26,789.9-506.26,1081.83a10.13,10.13,0,0,0,5,16.28Z"/><path class="cls-5" d="M560.17,585.67C550,994.12,517.2,2403,532.88,2902.28a100.23,100.23,0,0,0,97,97.08c261.6,8.56,1014.15,30.26,1442,12.31a168.79,168.79,0,0,0,161.85-165.11c8.89-428.72,28.51-1634.55-18.12-2186.94A137.74,137.74,0,0,0,2092,534.12c-284.9-28.5-1041.57-98.17-1411.24-74.18A129.09,129.09,0,0,0,560.17,585.67Z"/><path class="cls-4" d="M666.47,712.58C652.18,1047.1,607.11,2160,621.41,2571.47A116.44,116.44,0,0,0,731,2683.77c247.38,14.47,881.87,46.4,1244.71,17.34a130.86,130.86,0,0,0,120.13-123.52c18.39-341.28,71.18-1377.51,57.47-1784.41a128.65,128.65,0,0,0-117.16-123.73c-267.62-24-955-81.2-1263.29-64.38A112.49,112.49,0,0,0,666.47,712.58Z"/><path class="cls-6" d="M1206.69,531.31h0A23.51,23.51,0,0,0,1229,554.83c61.79,3.24,235.85,12.4,313.63,16.91a23.54,23.54,0,0,0,24.47-28l-.5-2.58a23.52,23.52,0,0,0-21-19c-52.58-4.82-211.24-18.18-316.36-14.43A23.49,23.49,0,0,0,1206.69,531.31Z"/><path class="cls-7" d="M2157.59,1354.17H1853.18a30.17,30.17,0,0,1-30.17-30.05c-1.11-272.24-2.1-638.87-.27-673.71-.1,1.84-56.18-3.73-56.18-3.73-.89,17.77.35-7.23-.06,29.86-.23,21.05-.39,51.28-.48,89.85-.15,64.57-.09,153.71.16,264.95.44,189.22,1.32,379.53,1.32,381.43l.1,21a36.64,36.64,0,0,0,36.64,36.46h63.47a20,20,0,0,1,19.94,20v346.23a41.38,41.38,0,0,1-41.37,41.38H1688a42.22,42.22,0,0,1-39.71-27.88l-122-338.06a49.26,49.26,0,0,0-46.33-32.53H1332.33a19.42,19.42,0,0,1-18.93-23.73L1502,627.28l-77.82-5.06-179.67,809.91a60.27,60.27,0,0,1-58.83,47.22H1131a36.32,36.32,0,0,1-36.34-36.41c.2-73.47.46-180.47.63-287.09.17-111.21.21-200.26.11-264.66-.2-128.43,4.21-277,2.2-285.4,0,0-36.77-.5-36.81-1.19,1.34,25.94,4.62,543.83,4.13,840.73a34.08,34.08,0,0,1-34.07,34H979.48A43.84,43.84,0,0,1,936,1441.26C903.84,1198,826.7,615.34,824.56,602c-35.37.83-67.68,2.71-84.66,9.88,0,0,85.41,642.76,124.81,940.86h0a49.11,49.11,0,0,0,48.69,42.68h229.43a28.5,28.5,0,0,1,26.3,39.47L1008,2021.21a60,60,0,0,1-55.4,36.92H622l-1.89,116.09H970.21a71.83,71.83,0,0,0,66.29-44.17l208.1-498.75a58.31,58.31,0,0,1,53.82-35.86h156.87a44.5,44.5,0,0,1,41.87,29.41l80.74,223.69a21.86,21.86,0,0,1-20.56,29.28h-224a20,20,0,0,0-20,20v807.46H1343V1977.61a38,38,0,0,1,38-38H1574a52.36,52.36,0,0,1,49.24,34.57l240.08,665.18,44.72-69.64-217.25-601.92a21,21,0,0,1,19.79-28.19h205.67a38.64,38.64,0,0,0,38.65-38.65V1504.24a34,34,0,0,1,34-34h168.71Z"/><path class="cls-8" d="M1922.77,1925.51h-286.2a16.9,16.9,0,0,1-15.78-10.86l-142.92-374.73h-573a16.88,16.88,0,0,1-16.74-14.72L780.16,688.59a16.88,16.88,0,0,1,33.49-4.32l106,821.89h569.83a16.87,16.87,0,0,1,15.77,10.87l142.93,374.72h257.7V1416.11a16.88,16.88,0,0,1,33.76,0v492.52A16.88,16.88,0,0,1,1922.77,1925.51Z"/><circle class="cls-8" cx="1921.33" cy="1383.9" r="86.37"/><rect class="cls-8" x="2744.2" y="752.73" width="92.96" height="2409.52"/><rect class="cls-9" x="2379.96" y="607.14" width="796.27" height="796.27" rx="188.02"/><rect class="cls-8" x="2420.27" y="647.45" width="712.28" height="712.28" rx="147.59"/><path class="cls-9" d="M2613.82,784.36c31.54-5.37,75.83-9.39,138.24-9.39,63.08,0,108,12.08,138.24,36.23,28.85,22.82,48.31,60.4,48.31,104.69s-14.76,81.87-41.6,107.37c-34.9,32.88-86.57,47.64-147,47.64a257.82,257.82,0,0,1-34.89-2v161.73H2613.82ZM2715.15,989.7c8.72,2,19.46,2.69,34.22,2.69,54.36,0,87.91-27.51,87.91-73.82,0-41.6-28.86-66.43-79.86-66.43-20.8,0-34.89,2-42.27,4Z"/><rect class="cls-5" x="1482.89" y="2791" width="221.75" height="423.33" rx="90.67"/><rect class="cls-5" x="2732.73" y="2791" width="221.75" height="423.33" rx="90.67"/><path class="cls-10" d="M1603.3,2427.81c-2.72-.6-6.18-3-6.18-5.8v-18.63c0-18-8.59-34.38-24.62-42.46a73.91,73.91,0,0,0-65.23-1l-36.58,18c-18.39,8.6-28.12,27.07-28.12,47.37v14.21c0,26.15,17.67,48.28,43.58,51.81L1644.1,2513l18.46-72.31Z"/><path class="cls-10" d="M2842.19,2427.81a6,6,0,0,0,4.78-5.8v-18.63a47.44,47.44,0,0,1,26-42.46,75.42,75.42,0,0,1,65.93-1l40.57,18c18.4,8.6,32.11,27.07,32.11,47.37v14.21c0,26.15-21.31,48.28-47.22,51.81L2804.61,2513l-20.06-72.31Z"/><path class="cls-10" d="M2958.07,2587.68c-23-77.58-141.75-149.46-141.75-149.46s-99.61-305.74-206.88-305.74H1836c-107.27,0-206.88,305.74-206.88,305.74s-118.77,71.81-141.75,149.4c-16.81,56.72,19.63,275.56,40.44,388.14,7.33,39.69,44.79,70.59,88.52,70.59H2829.1c43.74,0,81.19-30.87,88.53-70.56C2938.44,2863.21,2974.88,2644.41,2958.07,2587.68Z"/><path class="cls-11" d="M2943.15,2912.51c-6.68-7.65-16.88-14-27.67-14H1530c-10.73,0-20.87,6.3-27.55,13.87a31.37,31.37,0,0,0-6.83,27.85l22.67,92.43c3.65,14.5,17.92,27.12,34.38,27.12h1339c16.31,0,30.5-12,34.28-26.31l23.81-92C2952.27,2932,2949.84,2920.16,2943.15,2912.51Z"/><path class="cls-2" d="M1848.53,2773.81s-34.48-103.44-77.9-112.38-227.32-47.25-231.15-15.32-40.86,141.75,69,152S1866.22,2816.7,1848.53,2773.81Z"/><path class="cls-2" d="M2596.93,2773.81s34.48-103.44,77.9-112.38,227.31-47.25,231.14-15.32,40.87,141.75-69,152S2579.24,2816.7,2596.93,2773.81Z"/><path class="cls-11" d="M2572.17,2683.9c-3.57-5.5-9.68-10.49-16.23-10.49H1889.52c-6.79,0-13.08,5.23-16.58,11.05a21,21,0,0,0-.51,19.87l37.49,72.49c13.92,26.23,41.19,44.42,70.88,44.42h489.66c31.67,0,60.38-20,73.28-48.92l29.87-68.49C2576.27,2697.84,2575.73,2689.39,2572.17,2683.9Z"/><path class="cls-3" d="M2753.63,2463.87c-4.33,6.59-11.68,11.31-19.61,11.31H1711.41c-8,0-15.47-4.83-19.77-11.62a24.13,24.13,0,0,1-1.37-22.93c23.21-48.92,66.77-139.67,91.18-190.36a59.9,59.9,0,0,1,3.71-6.72,65.15,65.15,0,0,1,55-30.43h773.31a65.15,65.15,0,0,1,55.28,30.72,66.56,66.56,0,0,1,4.41,8.41l82.29,189.06A24.08,24.08,0,0,1,2753.63,2463.87Z"/><path class="cls-4" d="M2668.77,2243.84c-54.17,10.69-213.35,37.34-453.45,37.34-242.09,0-384.15-27.2-430.16-37.73a65,65,0,0,1,55-30.33h773.31A65.15,65.15,0,0,1,2668.77,2243.84Z"/><path class="cls-9" d="M1832.05,2633.1a3.85,3.85,0,0,1-2.64-1l-132.54-125.43a3.83,3.83,0,0,1,5.27-5.57l132.54,125.43a3.83,3.83,0,0,1-2.63,6.62Z"/><path class="cls-9" d="M2603.65,2633.1a3.79,3.79,0,0,1-2.78-1.2,3.83,3.83,0,0,1,.15-5.42l132.54-125.43a3.83,3.83,0,1,1,5.27,5.57l-132.55,125.43A3.81,3.81,0,0,1,2603.65,2633.1Z"/><path class="cls-9" d="M2551.61,1978.13c18.83-15.77,90.32-135.64,204.69,0,12.38,6.46,44.38-11.63,40.3-24.3-133.85-195.22-300.54-12-284.19,8.09S2529.7,1996.47,2551.61,1978.13Z"/><path class="cls-9" d="M2877.34,1896.83c25-2.93,48.43-20,41.41-41.79-6.91-21.51-245.15-299.82-510.5,13.91a18.92,18.92,0,0,0,2.34,26.75c12.08,10.07,22.37,16.82,35.72,15.18C2689.13,1635.55,2852.37,1899.76,2877.34,1896.83Z"/><path class="cls-9" d="M3001.36,1813.69c17.73,3.55,54-9.78,44.61-38.92-419.34-456.26-792.8,22-779.1,41.25s41.48,20,52.66,13.5C2653.41,1401.25,2983.62,1810.14,3001.36,1813.69Z"/><path class="cls-9" d="M2707.74,2047.83a55.55,55.55,0,1,1-55.55-55.55A55.56,55.56,0,0,1,2707.74,2047.83Z"/><path class="cls-5" d="M1290.21,3241.73l-163.83-75.29-28.93-4.68s-6.22,35.17-9.26,70Z"/><path class="cls-12" d="M1092.36,3141.09l5,42.07s28.7,13.36,48.3-1.68l-11.89-46.89Z"/><path class="cls-8" d="M1096.11,2350.09c-2.16,11-11.57,548.29,45.86,789.08a8.17,8.17,0,0,1-4.79,9.5,142.41,142.41,0,0,1-46.78,9.51,14.06,14.06,0,0,1-14-10.1c-16.42-55.87-95.09-335.77-105.35-603.15-11.47-298.78,0-10.18,0-10.18l6.72-184.68Z"/><path class="cls-5" d="M974.61,3249.61c-2.1-17.22-8.61-45.48-28.74-67.5l-36.89-2s-9.89,17.75-19.46,64.94Z"/><path class="cls-13" d="M900.3,3126,912,3189.62s11.53,8.58,34.35,2.36l-5.57-68.46Z"/><path class="cls-8" d="M868.79,2366.58c-47,283.49,10.18,700.66,29.46,782.31a12.74,12.74,0,0,0,10.28,9.67c8.61,1.43,22.78,2.59,36.75-1.47a11.65,11.65,0,0,0,8.38-10.74c2.59-66-2.06-471.27,41.7-631.42a36.36,36.36,0,0,1,14-20.07l84.95-60.4,6.51-97.62Z"/><path class="cls-10" d="M1168.1,1829.43c-140.77-2.33-296.09,37-296.09,37-42,244.84-7.34,527.24-7.34,527.24,109,28.58,231.92-17.47,231.92-17.47,18.11-102.34,102.62-390.35,102.62-390.35,68.78-8.53,125.44-28.38,172.1-54.61-35.59-41.26-52.37-93.75-59.66-124.78C1261.88,1821.88,1211.52,1830.15,1168.1,1829.43Z"/><path class="cls-14" d="M1583.91,1622.08c-13.83-16.7-31.33-8.8-31.33-8.8-20.72,87.51-129.34,158.46-240.93,193.14,7.29,31,24.07,83.52,59.66,124.78C1556.5,1827.07,1583.91,1622.08,1583.91,1622.08Z"/><path class="cls-15" d="M1580.55,1626.33c1.45,4.6-15.31,11.6-25.17-7.21-.35-9-5.83-47.64-.44-55,28.69-39.12,84.32-88.16,84.32-88.16,9.41,9.28,1.66,18.39,1.66,18.39l-27,28.12c5.65,10.2,12.53,18.81,15.76,31.15a37.83,37.83,0,0,1-3.77,27.83c-4.74,8.54-11.2,19.63-17.31,28.31C1597,1626.21,1580.55,1626.33,1580.55,1626.33Z"/><path class="cls-16" d="M1602.13,1540.72l-24.6,20.85-7.72,20.75,21.93,24.33s7.37-41.19,12.85-50.1S1607.23,1543.32,1602.13,1540.72Z"/><path class="cls-10" d="M926,2002.7l-54-136.31S740.52,1955.73,718.9,2069c24.84,1.83,70.05,8.29,114.3,30.64C842.92,2046.15,926,2002.7,926,2002.7Z"/><path class="cls-17" d="M1040.9,2131s-147.62,83.43-197.43,12.19c-10.35-14.8-12.82-29.5-10.27-43.51-44.25-22.35-89.46-28.81-114.3-30.64-6.52,34.15-3.08,70.47,17,107.18,87.25,159.6,324.55-8.82,324.55-8.82Z"/><path class="cls-5" d="M1023.17,2236.51l80.57-281.37a8.2,8.2,0,0,1,6.94-5.91c14.59-1.7,56.89-6.48,105.73-10.61,58.83-5,127.14-9,168-5.58a8.23,8.23,0,0,1,6.73,11.85c-23.21,47-118.7,238-166.52,300.59a8.21,8.21,0,0,1-6.64,3.26L1031,2247A8.23,8.23,0,0,1,1023.17,2236.51Z"/><path class="cls-18" d="M1042.63,2168.53s-11.22-46.15-6.69-62.52,13.3-37.43,42.53-32.75,63.73,17,63.73,17-1.74,21.33-24,14.45l13.78,10.66s-2,17.08-20.74,7.95l12.81,14.14s-8.06,14-21.87,5S1081.79,2174.09,1042.63,2168.53Z"/><path class="cls-19" d="M1025.51,1715.15l-44.79,129.53a4.67,4.67,0,0,0,2.13,5.62c12.21,6.75,56.2,26.26,109.21-7.35a22,22,0,0,0,10.12-15.7l14.5-112.1Z"/><path class="cls-20" d="M1123,1595.2s49.18,92.58,42.88,130-67.26,34.71-120.49,4.34l-37.2-100Z"/><path class="cls-5" d="M1091.67,1517.47c-53.73,30.84-105.53,51.84-117.25,77.73s-12.34,40.07-3.7,47.47,0,63.42,47.49,82.34h0a19.25,19.25,0,0,0,26-21.6l-4.36-22.31s1.84,2.51,8.69,2.08-4.68-16.43-7.58-23-13.1-23.08,3.34-23.47,86.77-10.25,103.82-37.39S1145.4,1486.63,1091.67,1517.47Z"/><path class="cls-21" d="M1053.31,1686.18s-35-24-37.57-3.8,31.53,29.31,48.42,21.77Z"/><path class="cls-22" d="M1129,1598.26a1.8,1.8,0,0,1-1.21-.45,1.85,1.85,0,0,1-.2-2.6c1-1.17,24.09-29-5.81-67.56a1.85,1.85,0,1,1,2.92-2.27c31.81,41,6,71.93,5.7,72.24A1.84,1.84,0,0,1,1129,1598.26Z"/><circle class="cls-23" cx="715.9" cy="852.14" r="516.03" transform="translate(-392.87 755.8) rotate(-45)"/><circle class="cls-24" cx="715.9" cy="852.14" r="498.87" transform="translate(-392.87 755.8) rotate(-45)"/><path class="cls-22" d="M256,833h-.28a5.27,5.27,0,0,1-5-5.53,469.34,469.34,0,0,1,6.77-58.51,5.27,5.27,0,1,1,10.37,1.87A459.55,459.55,0,0,0,261.29,828,5.27,5.27,0,0,1,256,833Z"/><path class="cls-22" d="M304.54,650.18a5.17,5.17,0,0,1-2.37-.57,5.26,5.26,0,0,1-2.33-7.08C379.6,484.52,539,386.36,715.9,386.36a469.77,469.77,0,0,1,84,7.56A5.27,5.27,0,0,1,798,404.29a458.89,458.89,0,0,0-82.13-7.39c-172.88,0-328.7,95.94-406.66,250.38A5.25,5.25,0,0,1,304.54,650.18Z"/><circle class="cls-22" cx="726.77" cy="863.01" r="422.23" transform="translate(-397.37 766.67) rotate(-45)"/><path class="cls-24" d="M582.28,1091.38a62.63,62.63,0,0,1-6.82-.38,61.88,61.88,0,0,1-43.75-25.83l-106-150.27a61.89,61.89,0,0,1,101.14-71.36l65.74,93.17,321.8-291.24a61.89,61.89,0,0,1,83.06,91.77L623.81,1075.37A61.86,61.86,0,0,1,582.28,1091.38Z"/></g></svg>